<svg xmlns="http://www.w3.org/2000/svg" xmlns:xlink="http://www.w3.org/1999/xlink" xmlns:lucid="lucid" width="957.6" height="882"><g transform="translate(0 0)" lucid:page-tab-id="0_0"><path d="M406 105c0-2.76 2.24-5 5-5h150c2.76 0 5 2.24 5 5v70c0 2.76-2.24 5-5 5H411c-2.76 0-5-2.24-5-5z" stroke="#000" stroke-width="2" fill="url(#a)"/><use xlink:href="#b" transform="matrix(1,0,0,1,406,100) translate(40.12499999999999 21.9)"/><use xlink:href="#c" transform="matrix(1,0,0,1,406,100) translate(28.624999999999993 43.5)"/><use xlink:href="#d" transform="matrix(1,0,0,1,406,100) translate(55.55 65.10000000000001)"/><path d="M406 305c0-2.76 2.24-5 5-5h150c2.76 0 5 2.24 5 5v70c0 2.76-2.24 5-5 5H411c-2.76 0-5-2.24-5-5z" stroke="#000" stroke-width="2" fill="url(#e)"/><use xlink:href="#b" transform="matrix(1,0,0,1,406,300) translate(40.12499999999999 21.9)"/><use xlink:href="#f" transform="matrix(1,0,0,1,406,300) translate(43.574999999999996 43.5)"/><use xlink:href="#g" transform="matrix(1,0,0,1,406,300) translate(32.62499999999999 65.10000000000001)"/><path d="M406 505c0-2.76 2.24-5 5-5h150c2.76 0 5 2.24 5 5v70c0 2.76-2.24 5-5 5H411c-2.76 0-5-2.24-5-5z" stroke="#000" stroke-width="2" fill="url(#h)"/><use xlink:href="#i" transform="matrix(1,0,0,1,406,500) translate(61.225 31.9)"/><use xlink:href="#j" transform="matrix(1,0,0,1,406,500) translate(32.62499999999999 53.5)"/><path d="M873 300c6.63 0 12 17.9 12 40s-5.37 40-12 40h-96c-6.63 0-12-17.9-12-40s5.37-40 12-40z" stroke="#000" stroke-width="2" fill="url(#k)"/><path d="M873 380c-6.63 0-12-17.9-12-40s5.37-40 12-40" stroke="#000" stroke-width="2" fill="none"/><use xlink:href="#l" transform="matrix(1,0,0,1,765,300) translate(29.53 44.4)"/><path d="M885 572c0 4.42-26.86 8-60 8s-60-3.58-60-8v-64c0-4.42 26.86-8 60-8s60 3.58 60 8z" stroke="#000" stroke-width="2" fill="url(#m)"/><path d="M885 508c0 4.42-26.86 8-60 8s-60-3.58-60-8" stroke="#000" stroke-width="2" fill="none"/><use xlink:href="#n" transform="matrix(1,0,0,1,765,516) translate(20.074999999999996 34.4)"/><path d="M525 740c0 22.1-17.9 40-40 40s-40-17.9-40-40 17.9-40 40-40 40 17.9 40 40z" stroke="#000" stroke-width="2" fill="url(#o)"/><use xlink:href="#p" transform="matrix(1,0,0,1,445,700) translate(20.03 44.4)"/><path d="M285 200l.05-2.62.16-2.46.25-2.3.32-2.2.4-2.07.46-1.98.53-1.9.6-1.8.65-1.77.72-1.7.77-1.64.83-1.6.9-1.57.98-1.55 1.06-1.5 1.13-1.5 1.2-1.47 1.32-1.46 1.42-1.44 1.53-1.44 1.67-1.44 1.8-1.43 2-1.44 2.16-1.44 2.4-1.46 2.65-1.46 2.95-1.47 3.32-1.46 3.74-1.48 4.25-1.48 4.9-1.47 5.7-1.45 6.7-1.42 8.02-1.35 9.86-1.24 12.57-1.04 17.38-.7 12.67-.13" stroke="#000" stroke-width="2" fill="none"/><path d="M285.02 200H285l-1 .04v-.17zM405 140.67l-14.2 4.84-.13-9.26z"/><path d="M406 139.93v1.45l-16.18 5.52-.17-12.02zm-14.22 4.2l9.98-3.42-10.07-3.1z"/><path d="M486 180v.66l.06.66.06.65.1.65.12.65.16.65.18.65.2.66.26.67.3.68.32.7.37.7.43.75.48.76.55.78.62.83.7.87.83.9.95.98 1.1 1.03 1.27 1.1 1.5 1.18 1.78 1.3 2.12 1.4 2.58 1.56 3.17 1.74 3.97 1.97 5.07 2.25 6.68 2.64 9.1 3.16 13.13 3.94 20.74 5.28 42.2 8.82 138.96 26.38 20.74 5.28 13.12 3.94 9.1 3.16 6.7 2.64 5.07 2.25 3.98 1.97 3.17 1.74 2.58 1.56 2.12 1.4 1.78 1.3 1.5 1.18 1.27 1.1 1.1 1.03.95.97.82.9.7.87.64.82.56.8.48.75.43.74.37.72.33.7.3.68.24.67.22.66.18.65.16.65.12.65.1.65.06.65.05.66v.66" fill="none"/><path d="M486 180v.66l.06.66.06.65.1.65.12.65.16.65.02.1m3.73 7.13l.68.82.82.9.95.98 1.1 1.03 1.27 1.1 1 .78m6.73 4.5l.25.16 3.17 1.74 3.76 1.86m7.45 3.2l4.52 1.8 3.07 1.06m7.68 2.6l7.76 2.32m7.82 2.16l7.85 2m7.86 2l.92.24 7 1.47m7.93 1.65l7.94 1.66m7.92 1.66l7.94 1.66m7.95 1.58l7.98 1.5m7.96 1.52l7.97 1.5m7.97 1.52l7.97 1.5m7.97 1.53l7.97 1.5m7.97 1.52l7.96 1.5m7.97 1.52l7.96 1.5m7.97 1.52l7.96 1.5m7.97 1.52l7.97 1.5m7.96 1.52l7.02 1.34.93.23m7.87 2l7.86 2m7.8 2.17l7.77 2.33m7.7 2.6l3.05 1.05 4.53 1.8m7.44 3.2l3.76 1.86 3.17 1.74.25.15m6.73 4.5l1 .8 1.27 1.1 1.1 1.02.95.97.82.9.68.84m3.73 7.13l.02.08.16.65.12.65.1.65.06.65.05.66v.66" stroke="#000" stroke-width="2" fill="none"/><path d="M485.1 180.42l-.2-.42h1.1zM825 300l-10.2-11 8.42-3.9z"/><path d="M826 300h-2.36l-10.5-11.34 10.9-5.04zm-9.52-10.68l7.16 7.74-1.25-10.47z"/><path d="M749 164c-13.25 0-24-10.75-24-24 0-10.6 6.5-19.55 16.58-22.83C741 86 781 80 797 92c8-18 48-12 48 6 24-6 48 18 32 48 16 24 0 54-32 42-8 15.6-40 15.6-48 0-16 12-48 6-48-24z" stroke="#000" stroke-width="2" fill="url(#q)"/><use xlink:href="#r" transform="matrix(1,0,0,1,725,80) translate(61.555 63.15)"/><path d="M725 140H566" fill="none"/><path d="M725 140h-3.98m-7.95 0h-7.95m-7.95 0h-7.95m-7.95 0h-7.95m-7.95 0h-7.95m-7.95 0h-7.95m-7.95 0h-7.95m-7.95 0h-7.95m-7.95 0h-7.95m-7.95 0h-7.95m-7.95 0H566" stroke="#000" stroke-width="2" fill="none"/><path d="M725 140l.06 1H725v-2h.1zM580.27 144.64L566 140l14.27-4.64z"/><path d="M581.27 146L566 141.06v-2.1l15.27-4.96zm-12.03-6l10.03 3.26v-6.52z"/><use xlink:href="#s" transform="matrix(1,0,0,1,602.073807511925,114.40000000000002) translate(0 14.4)"/><use xlink:href="#t" transform="matrix(1,0,0,1,602.073807511925,114.40000000000002) translate(40.900000000000006 14.4)"/><path d="M705 720h160" stroke="#000" stroke-width="2" fill="none"/><path d="M865 720l-14.27 4.64v-9.28z" stroke="#000" stroke-width="2"/><use xlink:href="#u" transform="matrix(1,0,0,1,769.5761999880003,694.4000000000001) translate(0 14.4)"/><path d="M166 380c0 22.1-17.9 40-40 40s-40-17.9-40-40 17.9-40 40-40 40 17.9 40 40z" stroke="#000" stroke-width="2" fill="url(#v)"/><use xlink:href="#w" transform="matrix(1,0,0,1,86,340) translate(27.005000000000003 44.4)"/><path d="M765 340H566" fill="none"/><path d="M765 340h-4.15m-8.3 0h-8.28m-8.3 0h-8.28m-8.3 0h-8.3m-8.3 0h-8.28m-8.3 0h-8.28m-8.3 0h-8.3m-8.28 0h-8.3m-8.28 0h-8.3m-8.28 0h-8.3m-8.3 0h-8.28m-8.3 0h-8.28m-8.3 0H566" stroke="#000" stroke-width="2" fill="none"/><path d="M765 340l.03 1H765v-2h.06zM580.27 344.64L566 340l14.27-4.64z"/><path d="M581.27 346L566 341.06v-2.1l15.27-4.96zm-12.03-6l10.03 3.26v-6.52z"/><path d="M765 540H566" fill="none"/><path d="M765 540h-4.15m-8.3 0h-8.28m-8.3 0h-8.28m-8.3 0h-8.3m-8.3 0h-8.28m-8.3 0h-8.28m-8.3 0h-8.3m-8.28 0h-8.3m-8.28 0h-8.3m-8.28 0h-8.3m-8.3 0h-8.28m-8.3 0h-8.28m-8.3 0H566" stroke="#000" stroke-width="2" fill="none"/><path d="M765 541v-2zM580.27 544.64L566 540l14.27-4.64z"/><path d="M581.27 546L566 541.06v-2.1l15.27-4.96zm-12.03-6l10.03 3.26v-6.52z"/><use xlink:href="#x" transform="matrix(1,0,0,1,592.223507514925,492.80000000000007) translate(0.0049999999999954525 14.4)"/><use xlink:href="#y" transform="matrix(1,0,0,1,592.223507514925,492.80000000000007) translate(71.60499999999999 14.4)"/><use xlink:href="#z" transform="matrix(1,0,0,1,592.223507514925,492.80000000000007) translate(27.33 36)"/><use xlink:href="#A" transform="matrix(1,0,0,1,592.223507514925,492.80000000000007) translate(84.23 36)"/><path d="M486 380v.66l.06.66.06.65.1.65.12.65.16.65.18.65.2.66.26.67.3.68.32.7.37.7.43.75.48.76.55.78.62.83.7.87.83.9.95.98 1.1 1.03 1.27 1.1 1.5 1.18 1.78 1.3 2.12 1.4 2.58 1.56 3.17 1.74 3.97 1.97 5.07 2.25 6.68 2.64 9.1 3.16 13.13 3.94 20.74 5.28 42.2 8.82 138.96 26.38 20.74 5.28 13.12 3.94 9.1 3.16 6.7 2.64 5.07 2.25 3.98 1.97 3.17 1.74 2.58 1.56 2.12 1.4 1.78 1.3 1.5 1.18 1.27 1.1 1.1 1.03.95.97.82.9.7.87.64.82.56.8.48.75.43.74.37.72.33.7.3.68.24.67.22.66.18.65.16.65.12.65.1.65.06.65.05.66v.66" fill="none"/><path d="M486 380v.66l.06.66.06.65.1.65.12.65.16.65.02.1m3.73 7.13l.68.82.82.9.95.98 1.1 1.03 1.27 1.1 1 .78m6.73 4.5l.25.16 3.17 1.74 3.76 1.86m7.45 3.2l4.52 1.8 3.07 1.06m7.68 2.6l7.76 2.32m7.82 2.16l7.85 2m7.86 2l.92.24 7 1.47m7.93 1.65l7.94 1.66m7.92 1.66l7.94 1.66m7.95 1.58l7.98 1.5m7.96 1.52l7.97 1.5m7.97 1.52l7.97 1.5m7.97 1.53l7.97 1.5m7.97 1.52l7.96 1.5m7.97 1.52l7.96 1.5m7.97 1.52l7.96 1.5m7.97 1.52l7.97 1.5m7.96 1.52l7.02 1.34.93.23m7.87 2l7.86 2m7.8 2.17l7.77 2.33m7.7 2.6l3.05 1.05 4.53 1.8m7.44 3.2l3.76 1.86 3.17 1.74.25.15m6.73 4.5l1 .8 1.27 1.1 1.1 1.02.95.97.82.9.68.84m3.73 7.13l.02.08.16.65.12.65.1.65.06.65.05.66v.66" stroke="#000" stroke-width="2" fill="none"/><path d="M485.1 380.42l-.2-.42h1.1zM825 500l-10.2-11 8.42-3.9z"/><path d="M826 500.04l-1-.04-1.32.04-10.54-11.38 10.9-5.04zm-9.52-10.72l7.16 7.74-1.25-10.47z"/><use xlink:href="#B" transform="matrix(1,0,0,1,670.7430545846041,405.72855660179056) translate(0.0049999999999954525 14.4)"/><use xlink:href="#y" transform="matrix(1,0,0,1,670.7430545846041,405.72855660179056) translate(71.855 14.4)"/><use xlink:href="#z" transform="matrix(1,0,0,1,670.7430545846041,405.72855660179056) translate(27.455 36)"/><use xlink:href="#A" transform="matrix(1,0,0,1,670.7430545846041,405.72855660179056) translate(84.355 36)"/><path d="M126 420l.12 5.68.33 5.28.52 4.93.68 4.63.83 4.37.97 4.14 1.1 3.94 1.23 3.77 1.34 3.6 1.46 3.5 1.58 3.35 1.7 3.25 1.83 3.17 1.95 3.1 2.1 3 2.25 2.97 2.42 2.9 2.6 2.9 2.78 2.83 3 2.83 3.26 2.8 3.53 2.8 3.83 2.8 4.2 2.8 4.63 2.78 5.1 2.8 5.68 2.82 6.36 2.83 7.17 2.83 8.16 2.84 9.4 2.83 10.97 2.8 13 2.76 15.8 2.66 19.8 2.5 26.35 2.17 40.77 1.6 61.18.4" stroke="#000" stroke-width="2" fill="none"/><path d="M126 420h.16l-1.16.06v-.12zM406 540l-14.3 4.55.06-9.28z"/><path d="M406 538.95v2.1l-15.3 4.87.07-12.03zm-13.3 4.23l10.06-3.2-10-3.32z"/><use xlink:href="#C" transform="matrix(1,0,0,1,213.27220821308987,505.5304483843368) translate(0 14.4)"/><use xlink:href="#D" transform="matrix(1,0,0,1,213.27220821308987,505.5304483843368) translate(37.95 14.4)"/><use xlink:href="#E" transform="matrix(1,0,0,1,213.27220821308987,505.5304483843368) translate(61.95 14.4)"/><path d="M325 240c0 22.1-17.9 40-40 40s-40-17.9-40-40 17.9-40 40-40 40 17.9 40 40z" stroke="#000" stroke-width="2" fill="url(#F)"/><use xlink:href="#G" transform="matrix(1,0,0,1,245,200) translate(19.08 31.9)"/><use xlink:href="#H" transform="matrix(1,0,0,1,245,200) translate(14.554999999999998 53.5)"/><path d="M285 280l.05 2.65.16 2.48.26 2.33.32 2.2.4 2.1.47 2 .53 1.92.6 1.84.66 1.78.72 1.7.8 1.68.84 1.62.9 1.6 1 1.54 1.06 1.53 1.14 1.5 1.23 1.5 1.33 1.47 1.44 1.46 1.55 1.46 1.68 1.45 1.84 1.47 2 1.45 2.2 1.46 2.43 1.47 2.68 1.48 3 1.48 3.35 1.5 3.78 1.5 4.32 1.5 4.95 1.5 5.76 1.46 6.77 1.44 8.12 1.37 9.96 1.25 12.67 1.05 17.45.7 12.6.13" stroke="#000" stroke-width="2" fill="none"/><path d="M285 280h.02l-1 .13-.04-.2zM406 340l-14.33 4.42.13-9.27z"/><path d="M406 338.94v2.1l-15.35 4.75.17-12.04zm-13.3 4.12l10.06-3.1-9.98-3.4z"/><path d="M126 340l.1-4.22.25-4.1.4-3.96.6-3.87.7-3.77.88-3.68 1-3.6 1.16-3.54 1.28-3.46 1.43-3.4 1.6-3.35 1.72-3.3 1.88-3.24 2.04-3.2 2.2-3.14 2.37-3.1 2.55-3.07 2.73-3.02 2.92-2.97 3.1-2.9 3.33-2.84 3.53-2.8 3.75-2.7 4-2.62 4.2-2.53 4.44-2.4 4.68-2.32 4.9-2.16 5.15-2 5.36-1.85 5.57-1.66 5.76-1.45 5.93-1.23 6.1-1 6.2-.76 6.33-.5 6.4-.24L245 240" stroke="#000" stroke-width="2" fill="none"/><path d="M126.12 340H126l-1 .04v-.12zM245 240l-14.02 5.34-.46-9.26z"/><path d="M245.06 238.98L245 240l.04 1.06-15 5.7-.58-12zm-13.15 4.93l9.87-3.74-10.18-2.76z"/><use xlink:href="#I" transform="matrix(1,0,0,1,99.1189404824554,239.25504281518099) translate(0 14.4)"/><path d="M705 760h160" fill="none"/><path d="M705 760h4m8 0h8m8 0h8m8 0h8m8 0h8m8 0h8m8 0h8m8 0h8m8 0h8m8 0h8m8 0h4" stroke="#000" stroke-width="2" fill="none"/><path d="M865 760l-14.27 4.64v-9.28z" stroke="#000" stroke-width="2"/><g><use xlink:href="#J" transform="matrix(1,0,0,1,747.5761999880001,734.4000000000001) translate(0 14.4)"/><use xlink:href="#K" transform="matrix(1,0,0,1,747.5761999880001,734.4000000000001) translate(42.95 14.4)"/></g><path d="M463.76 704.98V581" stroke="#000" stroke-width="2" fill="none"/><path d="M464.76 705.57l-1.34.75-.66.48v-1.82h2zM468.4 595.27h-9.28l4.64-14.27z"/><path d="M469.77 596.27h-12.02l5.28-16.27h1.46zm-9.27-2h6.52l-3.26-10.03z"/><g><use xlink:href="#L" transform="matrix(1,0,0,1,362.9092973230652,621.3905766192987) translate(0.010000000000005116 14.4)"/><use xlink:href="#M" transform="matrix(1,0,0,1,362.9092973230652,621.3905766192987) translate(64.91000000000001 14.4)"/><use xlink:href="#N" transform="matrix(1,0,0,1,362.9092973230652,621.3905766192987) translate(28.01000000000002 36)"/><use xlink:href="#O" transform="matrix(1,0,0,1,362.9092973230652,621.3905766192987) translate(63.86000000000002 36)"/></g><path d="M500.55 581v121.08" fill="none"/><path d="M500.55 581v3.78m0 7.57v7.57m0 7.57v7.55m0 7.57v7.57m0 7.56v7.57m0 7.56v7.56m0 7.57v7.57m0 7.56v7.57m0 7.57v3.78" stroke="#000" stroke-width="2" fill="none"/><path d="M501.55 581h-2v-1h2zM500.55 702.08l-4.64-14.26h9.28z"/><path d="M501.15 703.47l-1.42-.66-5.2-15.98h12.03zm-3.86-14.65l3.25 10.03 3.26-10.03z"/><g><use xlink:href="#P" transform="matrix(1,0,0,1,508.5477700512823,619.9420779513491) translate(0 14.4)"/><use xlink:href="#Q" transform="matrix(1,0,0,1,508.5477700512823,619.9420779513491) translate(59.900000000000006 14.4)"/><use xlink:href="#z" transform="matrix(1,0,0,1,508.5477700512823,619.9420779513491) translate(0 36)"/><use xlink:href="#R" transform="matrix(1,0,0,1,508.5477700512823,619.9420779513491) translate(56.900000000000006 36)"/></g><path d="M85 725c0-2.76 2.24-5 5-5h310c2.76 0 5 2.24 5 5v70c0 2.76-2.24 5-5 5H90c-2.76 0-5-2.24-5-5z" fill="none"/><g><use xlink:href="#S" transform="matrix(1,0,0,1,85,720) translate(0 20)"/><use xlink:href="#T" transform="matrix(1,0,0,1,85,720) translate(33.27777777777778 20)"/><use xlink:href="#U" transform="matrix(1,0,0,1,85,720) translate(114.94444444444443 20)"/><use xlink:href="#V" transform="matrix(1,0,0,1,85,720) translate(127.1111111111111 20)"/><use xlink:href="#W" transform="matrix(1,0,0,1,85,720) translate(0 44)"/><use xlink:href="#X" transform="matrix(1,0,0,1,85,720) translate(99.66666666666667 44)"/><use xlink:href="#Y" transform="matrix(1,0,0,1,85,720) translate(132.83333333333334 44)"/><use xlink:href="#Z" transform="matrix(1,0,0,1,85,720) translate(182.83333333333334 44)"/><use xlink:href="#aa" transform="matrix(1,0,0,1,85,720) translate(280.3888888888889 44)"/><use xlink:href="#ab" transform="matrix(1,0,0,1,85,720) translate(0 68)"/></g><defs><linearGradient gradientUnits="userSpaceOnUse" id="a" x1="406" y1="100" x2="406" y2="180"><stop offset="0%" stop-color="#99d2f2"/><stop offset="100%" stop-color="#3aa6dd"/></linearGradient><path d="M136-208V0H84v-208H4v-40h212v40h-80" id="ac"/><path d="M24 0v-248h195v40H76v63h132v40H76v65h150V0H24" id="ad"/><path d="M24-248c120-7 223 5 221 122C244-46 201 0 124 0H24v-248zM76-40c74 7 117-18 117-86 0-67-45-88-117-82v168" id="ae"/><path d="M14-72v-43h91v43H14" id="af"/><path d="M182 0l-62-99L58 0H3l86-130-79-118h55l55 88 55-88h55l-75 118L237 0h-55" id="ag"/><path d="M230 0l2-204L168 0h-37L68-204 70 0H24v-248h70l56 185 57-185h69V0h-46" id="ah"/><path d="M24 0v-248h52v208h133V0H24" id="ai"/><g id="b"><use transform="matrix(0.05,0,0,0.05,0,0)" xlink:href="#ac"/><use transform="matrix(0.05,0,0,0.05,10.950000000000001,0)" xlink:href="#ad"/><use transform="matrix(0.05,0,0,0.05,22.950000000000003,0)" xlink:href="#ae"/><use transform="matrix(0.05,0,0,0.05,35.900000000000006,0)" xlink:href="#af"/><use transform="matrix(0.05,0,0,0.05,41.85000000000001,0)" xlink:href="#ag"/><use transform="matrix(0.05,0,0,0.05,53.85,0)" xlink:href="#ah"/><use transform="matrix(0.05,0,0,0.05,68.80000000000001,0)" xlink:href="#ai"/></g><path d="M110-194c64 0 96 36 96 99 0 64-35 99-97 99-61 0-95-36-95-99 0-62 34-99 96-99zm-1 164c35 0 45-28 45-65 0-40-10-65-43-65-34 0-45 26-45 65 0 36 10 65 43 65" id="aj"/><path d="M231 0h-52l-39-155L100 0H48L-1-190h46L77-45c9-52 24-97 36-145h53l37 145 32-145h46" id="ak"/><path d="M135-194c87-1 58 113 63 194h-50c-7-57 23-157-34-157-59 0-34 97-39 157H25l-1-190h47c2 12-1 28 3 38 12-26 28-41 61-42" id="al"/><path d="M25 0v-261h50V0H25" id="am"/><path d="M133-34C117-15 103 5 69 4 32 3 11-16 11-54c-1-60 55-63 116-61 1-26-3-47-28-47-18 1-26 9-28 27l-52-2c7-38 36-58 82-57s74 22 75 68l1 82c-1 14 12 18 25 15v27c-30 8-71 5-69-32zm-48 3c29 0 43-24 42-57-32 0-66-3-65 30 0 17 8 27 23 27" id="an"/><path d="M88-194c31-1 46 15 58 34l-1-101h50l1 261h-48c-2-10 0-23-3-31C134-8 116 4 84 4 32 4 16-41 15-95c0-56 19-97 73-99zm17 164c33 0 40-30 41-66 1-37-9-64-41-64s-38 30-39 65c0 43 13 65 39 65" id="ao"/><path d="M185-48c-13 30-37 53-82 52C43 2 14-33 14-96s30-98 90-98c62 0 83 45 84 108H66c0 31 8 55 39 56 18 0 30-7 34-22zm-45-69c5-46-57-63-70-21-2 6-4 13-4 21h74" id="ap"/><path d="M135-150c-39-12-60 13-60 57V0H25l-1-190h47c2 13-1 29 3 40 6-28 27-53 61-41v41" id="aq"/><g id="c"><use transform="matrix(0.05,0,0,0.05,0,0)" xlink:href="#ae"/><use transform="matrix(0.05,0,0,0.05,12.950000000000001,0)" xlink:href="#aj"/><use transform="matrix(0.05,0,0,0.05,23.900000000000002,0)" xlink:href="#ak"/><use transform="matrix(0.05,0,0,0.05,37.900000000000006,0)" xlink:href="#al"/><use transform="matrix(0.05,0,0,0.05,48.85000000000001,0)" xlink:href="#am"/><use transform="matrix(0.05,0,0,0.05,53.85,0)" xlink:href="#aj"/><use transform="matrix(0.05,0,0,0.05,64.80000000000001,0)" xlink:href="#an"/><use transform="matrix(0.05,0,0,0.05,74.80000000000001,0)" xlink:href="#ao"/><use transform="matrix(0.05,0,0,0.05,85.75000000000001,0)" xlink:href="#ap"/><use transform="matrix(0.05,0,0,0.05,95.75000000000001,0)" xlink:href="#aq"/></g><path d="M137-138c1-29-70-34-71-4 15 46 118 7 119 86 1 83-164 76-172 9l43-7c4 19 20 25 44 25 33 8 57-30 24-41C81-84 22-81 20-136c-2-80 154-74 161-7" id="ar"/><path d="M190-63c-7 42-38 67-86 67-59 0-84-38-90-98-12-110 154-137 174-36l-49 2c-2-19-15-32-35-32-30 0-35 28-38 64-6 74 65 87 74 30" id="as"/><path d="M25-224v-37h50v37H25zM25 0v-190h50V0H25" id="at"/><path d="M135-194c53 0 70 44 70 98 0 56-19 98-73 100-31 1-45-17-59-34 3 33 2 69 2 105H25l-1-265h48c2 10 0 23 3 31 11-24 29-35 60-35zM114-30c33 0 39-31 40-66 0-38-9-64-40-64-56 0-55 130 0 130" id="au"/><path d="M115-3C79 11 28 4 28-45v-112H4v-33h27l15-45h31v45h36v33H77v99c-1 23 16 31 38 25v30" id="av"/><g id="d"><use transform="matrix(0.05,0,0,0.05,0,0)" xlink:href="#ar"/><use transform="matrix(0.05,0,0,0.05,10,0)" xlink:href="#as"/><use transform="matrix(0.05,0,0,0.05,20,0)" xlink:href="#aq"/><use transform="matrix(0.05,0,0,0.05,27,0)" xlink:href="#at"/><use transform="matrix(0.05,0,0,0.05,32,0)" xlink:href="#au"/><use transform="matrix(0.05,0,0,0.05,42.95,0)" xlink:href="#av"/></g><linearGradient gradientUnits="userSpaceOnUse" id="e" x1="406" y1="300" x2="406" y2="380"><stop offset="0%" stop-color="#99d2f2"/><stop offset="100%" stop-color="#3aa6dd"/></linearGradient><path d="M24 0v-248h52V0H24" id="aw"/><path d="M220-157c-53 9-28 100-34 157h-49v-107c1-27-5-49-29-50C55-147 81-57 75 0H25l-1-190h47c2 12-1 28 3 38 10-53 101-56 108 0 13-22 24-43 59-42 82 1 51 116 57 194h-49v-107c-1-25-5-48-29-50" id="ax"/><g id="f"><use transform="matrix(0.05,0,0,0.05,0,0)" xlink:href="#aw"/><use transform="matrix(0.05,0,0,0.05,5,0)" xlink:href="#ax"/><use transform="matrix(0.05,0,0,0.05,21,0)" xlink:href="#au"/><use transform="matrix(0.05,0,0,0.05,31.950000000000003,0)" xlink:href="#aj"/><use transform="matrix(0.05,0,0,0.05,42.900000000000006,0)" xlink:href="#aq"/><use transform="matrix(0.05,0,0,0.05,49.900000000000006,0)" xlink:href="#av"/><use transform="matrix(0.05,0,0,0.05,55.85,0)" xlink:href="#ap"/><use transform="matrix(0.05,0,0,0.05,65.85000000000001,0)" xlink:href="#aq"/></g><g id="g"><use transform="matrix(0.05,0,0,0.05,0,0)" xlink:href="#an"/><use transform="matrix(0.05,0,0,0.05,10,0)" xlink:href="#au"/><use transform="matrix(0.05,0,0,0.05,20.950000000000003,0)" xlink:href="#au"/><use transform="matrix(0.05,0,0,0.05,31.900000000000006,0)" xlink:href="#am"/><use transform="matrix(0.05,0,0,0.05,36.900000000000006,0)" xlink:href="#at"/><use transform="matrix(0.05,0,0,0.05,41.900000000000006,0)" xlink:href="#as"/><use transform="matrix(0.05,0,0,0.05,51.900000000000006,0)" xlink:href="#an"/><use transform="matrix(0.05,0,0,0.05,61.900000000000006,0)" xlink:href="#av"/><use transform="matrix(0.05,0,0,0.05,67.85000000000001,0)" xlink:href="#at"/><use transform="matrix(0.05,0,0,0.05,72.85000000000001,0)" xlink:href="#aj"/><use transform="matrix(0.05,0,0,0.05,83.80000000000001,0)" xlink:href="#al"/></g><linearGradient gradientUnits="userSpaceOnUse" id="h" x1="406" y1="500" x2="406" y2="580"><stop offset="0%" stop-color="#99d2f2"/><stop offset="100%" stop-color="#3aa6dd"/></linearGradient><path d="M275 0h-61l-44-196L126 0H64L0-248h53L97-49l45-199h58l43 199 44-199h52" id="ay"/><path d="M135-194c52 0 70 43 70 98 0 56-19 99-73 100-30 1-46-15-58-35L72 0H24l1-261h50v104c11-23 29-37 60-37zM114-30c31 0 40-27 40-66 0-37-7-63-39-63s-41 28-41 65c0 36 8 64 40 64" id="az"/><g id="i"><use transform="matrix(0.05,0,0,0.05,0,0)" xlink:href="#ay"/><use transform="matrix(0.05,0,0,0.05,16.599999999999998,0)" xlink:href="#ap"/><use transform="matrix(0.05,0,0,0.05,26.599999999999994,0)" xlink:href="#az"/></g><g id="j"><use transform="matrix(0.05,0,0,0.05,0,0)" xlink:href="#an"/><use transform="matrix(0.05,0,0,0.05,10,0)" xlink:href="#au"/><use transform="matrix(0.05,0,0,0.05,20.950000000000003,0)" xlink:href="#au"/><use transform="matrix(0.05,0,0,0.05,31.900000000000006,0)" xlink:href="#am"/><use transform="matrix(0.05,0,0,0.05,36.900000000000006,0)" xlink:href="#at"/><use transform="matrix(0.05,0,0,0.05,41.900000000000006,0)" xlink:href="#as"/><use transform="matrix(0.05,0,0,0.05,51.900000000000006,0)" xlink:href="#an"/><use transform="matrix(0.05,0,0,0.05,61.900000000000006,0)" xlink:href="#av"/><use transform="matrix(0.05,0,0,0.05,67.85000000000001,0)" xlink:href="#at"/><use transform="matrix(0.05,0,0,0.05,72.85000000000001,0)" xlink:href="#aj"/><use transform="matrix(0.05,0,0,0.05,83.80000000000001,0)" xlink:href="#al"/></g><linearGradient gradientUnits="userSpaceOnUse" id="k" x1="765" y1="300" x2="765" y2="380"><stop offset="0%" stop-color="#c7e8ac"/><stop offset="100%" stop-color="#a3d977"/></linearGradient><path d="M147 0L96-86 75-71V0H25v-261h50v150l67-79h53l-66 74L201 0h-54" id="aA"/><g id="l"><use transform="matrix(0.05,0,0,0.05,0,0)" xlink:href="#ae"/><use transform="matrix(0.05,0,0,0.05,12.950000000000001,0)" xlink:href="#at"/><use transform="matrix(0.05,0,0,0.05,17.950000000000003,0)" xlink:href="#ar"/><use transform="matrix(0.05,0,0,0.05,27.950000000000003,0)" xlink:href="#aA"/></g><linearGradient gradientUnits="userSpaceOnUse" id="m" x1="765" y1="500" x2="765" y2="580"><stop offset="0%" stop-color="#c7e8ac"/><stop offset="100%" stop-color="#a3d977"/></linearGradient><g id="n"><use transform="matrix(0.05,0,0,0.05,0,0)" xlink:href="#ae"/><use transform="matrix(0.05,0,0,0.05,12.950000000000001,0)" xlink:href="#an"/><use transform="matrix(0.05,0,0,0.05,22.950000000000003,0)" xlink:href="#av"/><use transform="matrix(0.05,0,0,0.05,28.900000000000002,0)" xlink:href="#an"/><use transform="matrix(0.05,0,0,0.05,38.900000000000006,0)" xlink:href="#az"/><use transform="matrix(0.05,0,0,0.05,49.85000000000001,0)" xlink:href="#an"/><use transform="matrix(0.05,0,0,0.05,59.85,0)" xlink:href="#ar"/><use transform="matrix(0.05,0,0,0.05,69.85000000000001,0)" xlink:href="#ap"/></g><linearGradient gradientUnits="userSpaceOnUse" id="o" x1="445" y1="700" x2="445" y2="780"><stop offset="0%" stop-color="#ffbbb1"/><stop offset="100%" stop-color="#ff8f80"/></linearGradient><path d="M238-95c0 69-44 99-111 99C63 4 22-25 22-93v-155h51v151c-1 38 19 59 55 60 90 1 49-130 58-211h52v153" id="aB"/><g id="p"><use transform="matrix(0.05,0,0,0.05,0,0)" xlink:href="#aB"/><use transform="matrix(0.05,0,0,0.05,12.950000000000001,0)" xlink:href="#ar"/><use transform="matrix(0.05,0,0,0.05,22.950000000000003,0)" xlink:href="#ap"/><use transform="matrix(0.05,0,0,0.05,32.95,0)" xlink:href="#aq"/></g><linearGradient gradientUnits="userSpaceOnUse" id="q" x1="725" y1="80" x2="725" y2="200"><stop offset="0%" stop-color="#c7e8ac"/><stop offset="100%" stop-color="#a3d977"/></linearGradient><g id="r"><use transform="matrix(0.05,0,0,0.05,0,0)" xlink:href="#ac"/><use transform="matrix(0.05,0,0,0.05,10.950000000000001,0)" xlink:href="#ad"/><use transform="matrix(0.05,0,0,0.05,22.950000000000003,0)" xlink:href="#ae"/></g><path d="M127-220V0H93v-220H8v-28h204v28h-85" id="aC"/><path d="M30 0v-248h187v28H63v79h144v27H63v87h162V0H30" id="aD"/><path d="M30-248c118-7 216 8 213 122C240-48 200 0 122 0H30v-248zM63-27c89 8 146-16 146-99s-60-101-146-95v194" id="aE"/><g id="s"><use transform="matrix(0.05,0,0,0.05,0,0)" xlink:href="#aC"/><use transform="matrix(0.05,0,0,0.05,10.950000000000001,0)" xlink:href="#aD"/><use transform="matrix(0.05,0,0,0.05,22.950000000000003,0)" xlink:href="#aE"/></g><path d="M195 0l-74-108L45 0H8l94-129-87-119h37l69 98 67-98h37l-84 118L233 0h-38" id="aF"/><path d="M240 0l2-218c-23 76-54 145-80 218h-23L58-218 59 0H30v-248h44l77 211c21-75 51-140 76-211h43V0h-30" id="aG"/><path d="M30 0v-248h33v221h125V0H30" id="aH"/><path d="M135-143c-3-34-86-38-87 0 15 53 115 12 119 90S17 21 10-45l28-5c4 36 97 45 98 0-10-56-113-15-118-90-4-57 82-63 122-42 12 7 21 19 24 35" id="aI"/><g id="t"><use transform="matrix(0.05,0,0,0.05,0,0)" xlink:href="#aF"/><use transform="matrix(0.05,0,0,0.05,12,0)" xlink:href="#aG"/><use transform="matrix(0.05,0,0,0.05,26.950000000000003,0)" xlink:href="#aH"/><use transform="matrix(0.05,0,0,0.05,36.95,0)" xlink:href="#aI"/></g><path d="M212-179c-10-28-35-45-73-45-59 0-87 40-87 99 0 60 29 101 89 101 43 0 62-24 78-52l27 14C228-24 195 4 139 4 59 4 22-46 18-125c-6-104 99-153 187-111 19 9 31 26 39 46" id="aJ"/><path d="M141-36C126-15 110 5 73 4 37 3 15-17 15-53c-1-64 63-63 125-63 3-35-9-54-41-54-24 1-41 7-42 31l-33-3c5-37 33-52 76-52 45 0 72 20 72 64v82c-1 20 7 32 28 27v20c-31 9-61-2-59-35zM48-53c0 20 12 33 32 33 41-3 63-29 60-74-43 2-92-5-92 41" id="aK"/><path d="M24 0v-261h32V0H24" id="aL"/><g id="u"><use transform="matrix(0.05,0,0,0.05,0,0)" xlink:href="#aJ"/><use transform="matrix(0.05,0,0,0.05,12.950000000000001,0)" xlink:href="#aK"/><use transform="matrix(0.05,0,0,0.05,22.950000000000003,0)" xlink:href="#aL"/><use transform="matrix(0.05,0,0,0.05,26.900000000000002,0)" xlink:href="#aL"/></g><linearGradient gradientUnits="userSpaceOnUse" id="v" x1="86" y1="340" x2="86" y2="420"><stop offset="0%" stop-color="#b391b5"/><stop offset="98.91%" stop-color="#834187"/></linearGradient><path d="M140-251c80 0 125 45 125 126S219 4 139 4C58 4 15-44 15-125s44-126 125-126zm-1 214c52 0 73-35 73-88 0-50-21-86-72-86-52 0-73 35-73 86s22 88 72 88" id="aM"/><path d="M169-182c-1-43-94-46-97-3 18 66 151 10 154 114 3 95-165 93-204 36-6-8-10-19-12-30l50-8c3 46 112 56 116 5-17-69-150-10-154-114-4-87 153-88 188-35 5 8 8 18 10 28" id="aN"/><g id="w"><use transform="matrix(0.05,0,0,0.05,0,0)" xlink:href="#aM"/><use transform="matrix(0.05,0,0,0.05,14,0)" xlink:href="#aN"/></g><path d="M266 0h-40l-56-210L115 0H75L2-248h35L96-30l15-64 43-154h32l59 218 59-218h35" id="aO"/><path d="M100-194c63 0 86 42 84 106H49c0 40 14 67 53 68 26 1 43-12 49-29l28 8c-11 28-37 45-77 45C44 4 14-33 15-96c1-61 26-98 85-98zm52 81c6-60-76-77-97-28-3 7-6 17-6 28h103" id="aP"/><path d="M115-194c53 0 69 39 70 98 0 66-23 100-70 100C84 3 66-7 56-30L54 0H23l1-261h32v101c10-23 28-34 59-34zm-8 174c40 0 45-34 45-75 0-40-5-75-45-74-42 0-51 32-51 76 0 43 10 73 51 73" id="aQ"/><path d="M115-194c55 1 70 41 70 98S169 2 115 4C84 4 66-9 55-30l1 105H24l-1-265h31l2 30c10-21 28-34 59-34zm-8 174c40 0 45-34 45-75s-6-73-45-74c-42 0-51 32-51 76 0 43 10 73 51 73" id="aR"/><g id="x"><use transform="matrix(0.05,0,0,0.05,0,0)" xlink:href="#aO"/><use transform="matrix(0.05,0,0,0.05,16.599999999999998,0)" xlink:href="#aP"/><use transform="matrix(0.05,0,0,0.05,26.599999999999994,0)" xlink:href="#aQ"/><use transform="matrix(0.05,0,0,0.05,36.599999999999994,0)" xlink:href="#aK"/><use transform="matrix(0.05,0,0,0.05,46.599999999999994,0)" xlink:href="#aR"/><use transform="matrix(0.05,0,0,0.05,56.599999999999994,0)" xlink:href="#aR"/></g><path d="M210-169c-67 3-38 105-44 169h-31v-121c0-29-5-50-35-48C34-165 62-65 56 0H25l-1-190h30c1 10-1 24 2 32 10-44 99-50 107 0 11-21 27-35 58-36 85-2 47 119 55 194h-31v-121c0-29-5-49-35-48" id="aS"/><path d="M59-47c-2 24 18 29 38 22v24C64 9 27 4 27-40v-127H5v-23h24l9-43h21v43h35v23H59v120" id="aT"/><path d="M85-194c31 0 48 13 60 33l-1-100h32l1 261h-30c-2-10 0-23-3-31C134-8 116 4 85 4 32 4 16-35 15-94c0-66 23-100 70-100zm9 24c-40 0-46 34-46 75 0 40 6 74 45 74 42 0 51-32 51-76 0-42-9-74-50-73" id="aU"/><g id="y"><use transform="matrix(0.05,0,0,0.05,0,0)" xlink:href="#aS"/><use transform="matrix(0.05,0,0,0.05,14.950000000000001,0)" xlink:href="#aP"/><use transform="matrix(0.05,0,0,0.05,24.950000000000003,0)" xlink:href="#aT"/><use transform="matrix(0.05,0,0,0.05,29.950000000000003,0)" xlink:href="#aK"/><use transform="matrix(0.05,0,0,0.05,39.95,0)" xlink:href="#aU"/><use transform="matrix(0.05,0,0,0.05,49.95,0)" xlink:href="#aK"/><use transform="matrix(0.05,0,0,0.05,59.95,0)" xlink:href="#aT"/><use transform="matrix(0.05,0,0,0.05,64.95,0)" xlink:href="#aK"/></g><path d="M140-251c81 0 123 46 123 126C263-46 219 4 140 4 59 4 17-45 17-125s42-126 123-126zm0 227c63 0 89-41 89-101s-29-99-89-99c-61 0-89 39-89 99S79-25 140-24" id="aV"/><path d="M185-189c-5-48-123-54-124 2 14 75 158 14 163 119 3 78-121 87-175 55-17-10-28-26-33-46l33-7c5 56 141 63 141-1 0-78-155-14-162-118-5-82 145-84 179-34 5 7 8 16 11 25" id="aW"/><g id="z"><use transform="matrix(0.05,0,0,0.05,0,0)" xlink:href="#aV"/><use transform="matrix(0.05,0,0,0.05,14,0)" xlink:href="#aJ"/><use transform="matrix(0.05,0,0,0.05,26.950000000000003,0)" xlink:href="#aE"/><use transform="matrix(0.05,0,0,0.05,39.900000000000006,0)" xlink:href="#aW"/></g><g id="A"><use transform="matrix(0.05,0,0,0.05,0,0)" xlink:href="#aU"/><use transform="matrix(0.05,0,0,0.05,10,0)" xlink:href="#aK"/><use transform="matrix(0.05,0,0,0.05,20,0)" xlink:href="#aT"/><use transform="matrix(0.05,0,0,0.05,25,0)" xlink:href="#aK"/></g><path d="M33 0v-248h34V0H33" id="aX"/><path d="M100-194c62-1 85 37 85 99 1 63-27 99-86 99S16-35 15-95c0-66 28-99 85-99zM99-20c44 1 53-31 53-75 0-43-8-75-51-75s-53 32-53 75 10 74 51 75" id="aY"/><path d="M114-163C36-179 61-72 57 0H25l-1-190h30c1 12-1 29 2 39 6-27 23-49 58-41v29" id="aZ"/><g id="B"><use transform="matrix(0.05,0,0,0.05,0,0)" xlink:href="#aX"/><use transform="matrix(0.05,0,0,0.05,5,0)" xlink:href="#aS"/><use transform="matrix(0.05,0,0,0.05,19.950000000000003,0)" xlink:href="#aR"/><use transform="matrix(0.05,0,0,0.05,29.950000000000003,0)" xlink:href="#aY"/><use transform="matrix(0.05,0,0,0.05,39.95,0)" xlink:href="#aZ"/><use transform="matrix(0.05,0,0,0.05,45.900000000000006,0)" xlink:href="#aT"/><use transform="matrix(0.05,0,0,0.05,50.900000000000006,0)" xlink:href="#aP"/><use transform="matrix(0.05,0,0,0.05,60.900000000000006,0)" xlink:href="#aZ"/></g><path d="M233-177c-1 41-23 64-60 70L243 0h-38l-65-103H63V0H30v-248c88 3 205-21 203 71zM63-129c60-2 137 13 137-47 0-61-80-42-137-45v92" id="ba"/><path d="M84 4C-5 8 30-112 23-190h32v120c0 31 7 50 39 49 72-2 45-101 50-169h31l1 190h-30c-1-10 1-25-2-33-11 22-28 36-60 37" id="bb"/><path d="M117-194c89-4 53 116 60 194h-32v-121c0-31-8-49-39-48C34-167 62-67 57 0H25l-1-190h30c1 10-1 24 2 32 11-22 29-35 61-36" id="bc"/><g id="C"><use transform="matrix(0.05,0,0,0.05,0,0)" xlink:href="#ba"/><use transform="matrix(0.05,0,0,0.05,12.950000000000001,0)" xlink:href="#bb"/><use transform="matrix(0.05,0,0,0.05,22.950000000000003,0)" xlink:href="#bc"/></g><g id="D"><use transform="matrix(0.05,0,0,0.05,0,0)" xlink:href="#aK"/><use transform="matrix(0.05,0,0,0.05,10,0)" xlink:href="#aI"/></g><path d="M108 0H70L1-190h34L89-25l56-165h34" id="bd"/><path d="M24-231v-30h32v30H24zM24 0v-190h32V0H24" id="be"/><path d="M96-169c-40 0-48 33-48 73s9 75 48 75c24 0 41-14 43-38l32 2c-6 37-31 61-74 61-59 0-76-41-82-99-10-93 101-131 147-64 4 7 5 14 7 22l-32 3c-4-21-16-35-41-35" id="bf"/><g id="E"><use transform="matrix(0.05,0,0,0.05,0,0)" xlink:href="#aI"/><use transform="matrix(0.05,0,0,0.05,9,0)" xlink:href="#aP"/><use transform="matrix(0.05,0,0,0.05,19,0)" xlink:href="#aZ"/><use transform="matrix(0.05,0,0,0.05,24.95,0)" xlink:href="#bd"/><use transform="matrix(0.05,0,0,0.05,33.95,0)" xlink:href="#be"/><use transform="matrix(0.05,0,0,0.05,37.900000000000006,0)" xlink:href="#bf"/><use transform="matrix(0.05,0,0,0.05,46.900000000000006,0)" xlink:href="#aP"/></g><linearGradient gradientUnits="userSpaceOnUse" id="F" x1="245" y1="200" x2="245" y2="280"><stop offset="0%" stop-color="#b391b5"/><stop offset="98.91%" stop-color="#834187"/></linearGradient><path d="M67-125c0 53 21 87 73 88 37 1 54-22 65-47l45 17C233-25 199 4 140 4 58 4 20-42 15-125 8-235 124-281 211-232c18 10 29 29 36 50l-46 12c-8-25-30-41-62-41-52 0-71 34-72 86" id="bg"/><g id="G"><use transform="matrix(0.05,0,0,0.05,0,0)" xlink:href="#bg"/><use transform="matrix(0.05,0,0,0.05,12.950000000000001,0)" xlink:href="#aq"/><use transform="matrix(0.05,0,0,0.05,19.950000000000003,0)" xlink:href="#aj"/><use transform="matrix(0.05,0,0,0.05,30.900000000000006,0)" xlink:href="#al"/></g><g id="H"><use transform="matrix(0.05,0,0,0.05,0,0)" xlink:href="#aN"/><use transform="matrix(0.05,0,0,0.05,12,0)" xlink:href="#as"/><use transform="matrix(0.05,0,0,0.05,22,0)" xlink:href="#aq"/><use transform="matrix(0.05,0,0,0.05,29,0)" xlink:href="#at"/><use transform="matrix(0.05,0,0,0.05,34,0)" xlink:href="#au"/><use transform="matrix(0.05,0,0,0.05,44.95,0)" xlink:href="#av"/></g><path d="M106-169C34-169 62-67 57 0H25v-261h32l-1 103c12-21 28-36 61-36 89 0 53 116 60 194h-32v-121c2-32-8-49-39-48" id="bh"/><g id="I"><use transform="matrix(0.05,0,0,0.05,0,0)" xlink:href="#aW"/><use transform="matrix(0.05,0,0,0.05,12,0)" xlink:href="#bf"/><use transform="matrix(0.05,0,0,0.05,21,0)" xlink:href="#bh"/><use transform="matrix(0.05,0,0,0.05,31,0)" xlink:href="#aP"/><use transform="matrix(0.05,0,0,0.05,41,0)" xlink:href="#aU"/><use transform="matrix(0.05,0,0,0.05,51,0)" xlink:href="#bb"/><use transform="matrix(0.05,0,0,0.05,61,0)" xlink:href="#aL"/><use transform="matrix(0.05,0,0,0.05,64.95,0)" xlink:href="#aP"/></g><g id="J"><use transform="matrix(0.05,0,0,0.05,0,0)" xlink:href="#aE"/><use transform="matrix(0.05,0,0,0.05,12.950000000000001,0)" xlink:href="#aK"/><use transform="matrix(0.05,0,0,0.05,22.950000000000003,0)" xlink:href="#aT"/><use transform="matrix(0.05,0,0,0.05,27.950000000000003,0)" xlink:href="#aK"/></g><path d="M101-234c-31-9-42 10-38 44h38v23H63V0H32v-167H5v-23h27c-7-52 17-82 69-68v24" id="bi"/><path d="M206 0h-36l-40-164L89 0H53L-1-190h32L70-26l43-164h34l41 164 42-164h31" id="bj"/><g id="K"><use transform="matrix(0.05,0,0,0.05,0,0)" xlink:href="#bi"/><use transform="matrix(0.05,0,0,0.05,5,0)" xlink:href="#aL"/><use transform="matrix(0.05,0,0,0.05,8.95,0)" xlink:href="#aY"/><use transform="matrix(0.05,0,0,0.05,18.95,0)" xlink:href="#bj"/></g><path d="M160-131c35 5 61 23 61 61C221 17 115-2 30 0v-248c76 3 177-17 177 60 0 33-19 50-47 57zm-97-11c50-1 110 9 110-42 0-47-63-36-110-37v79zm0 115c55-2 124 14 124-45 0-56-70-42-124-44v89" id="bk"/><g id="L"><use transform="matrix(0.05,0,0,0.05,0,0)" xlink:href="#bk"/><use transform="matrix(0.05,0,0,0.05,12,0)" xlink:href="#aZ"/><use transform="matrix(0.05,0,0,0.05,17.95,0)" xlink:href="#aY"/><use transform="matrix(0.05,0,0,0.05,27.950000000000003,0)" xlink:href="#bj"/><use transform="matrix(0.05,0,0,0.05,40.9,0)" xlink:href="#aI"/><use transform="matrix(0.05,0,0,0.05,49.9,0)" xlink:href="#aP"/></g><g id="M"><use transform="matrix(0.05,0,0,0.05,0,0)" xlink:href="#aI"/><use transform="matrix(0.05,0,0,0.05,9,0)" xlink:href="#be"/><use transform="matrix(0.05,0,0,0.05,12.949999999999998,0)" xlink:href="#aT"/><use transform="matrix(0.05,0,0,0.05,17.95,0)" xlink:href="#aP"/></g><g id="N"><use transform="matrix(0.05,0,0,0.05,0,0)" xlink:href="#aJ"/><use transform="matrix(0.05,0,0,0.05,12.950000000000001,0)" xlink:href="#aK"/><use transform="matrix(0.05,0,0,0.05,22.950000000000003,0)" xlink:href="#aL"/><use transform="matrix(0.05,0,0,0.05,26.900000000000002,0)" xlink:href="#aL"/></g><path d="M205 0l-28-72H64L36 0H1l101-248h38L239 0h-34zm-38-99l-47-123c-12 45-31 82-46 123h93" id="bl"/><path d="M30-248c87 1 191-15 191 75 0 78-77 80-158 76V0H30v-248zm33 125c57 0 124 11 124-50 0-59-68-47-124-48v98" id="bm"/><g id="O"><use transform="matrix(0.05,0,0,0.05,0,0)" xlink:href="#bl"/><use transform="matrix(0.05,0,0,0.05,12,0)" xlink:href="#bm"/><use transform="matrix(0.05,0,0,0.05,24,0)" xlink:href="#aX"/></g><g id="P"><use transform="matrix(0.05,0,0,0.05,0,0)" xlink:href="#aC"/><use transform="matrix(0.05,0,0,0.05,8.950000000000001,0)" xlink:href="#aP"/><use transform="matrix(0.05,0,0,0.05,18.950000000000003,0)" xlink:href="#bc"/><use transform="matrix(0.05,0,0,0.05,28.950000000000003,0)" xlink:href="#aU"/><use transform="matrix(0.05,0,0,0.05,38.95,0)" xlink:href="#aP"/><use transform="matrix(0.05,0,0,0.05,48.95,0)" xlink:href="#aZ"/></g><g id="Q"><use transform="matrix(0.05,0,0,0.05,0,0)" xlink:href="#be"/><use transform="matrix(0.05,0,0,0.05,3.95,0)" xlink:href="#bc"/><use transform="matrix(0.05,0,0,0.05,13.949999999999998,0)" xlink:href="#bi"/><use transform="matrix(0.05,0,0,0.05,18.95,0)" xlink:href="#aY"/><use transform="matrix(0.05,0,0,0.05,28.950000000000003,0)" xlink:href="#aZ"/><use transform="matrix(0.05,0,0,0.05,34.9,0)" xlink:href="#aS"/><use transform="matrix(0.05,0,0,0.05,49.85,0)" xlink:href="#aK"/><use transform="matrix(0.05,0,0,0.05,59.85,0)" xlink:href="#aT"/><use transform="matrix(0.05,0,0,0.05,64.85,0)" xlink:href="#be"/><use transform="matrix(0.05,0,0,0.05,68.8,0)" xlink:href="#aY"/><use transform="matrix(0.05,0,0,0.05,78.8,0)" xlink:href="#bc"/></g><path d="M153-248C145-148 188 4 80 4 36 3 13-21 6-62l32-5c4 25 16 42 43 43 27 0 39-20 39-49v-147H72v-28h81" id="bn"/><path d="M190 0L58-211 59 0H30v-248h39L202-35l-2-213h31V0h-41" id="bo"/><g id="R"><use transform="matrix(0.05,0,0,0.05,0,0)" xlink:href="#bn"/><use transform="matrix(0.05,0,0,0.05,9,0)" xlink:href="#aW"/><use transform="matrix(0.05,0,0,0.05,21,0)" xlink:href="#aV"/><use transform="matrix(0.05,0,0,0.05,35,0)" xlink:href="#bo"/></g><g id="S"><use transform="matrix(0.05555555555555555,0,0,0.05555555555555555,0,0)" xlink:href="#ad"/><use transform="matrix(0.05555555555555555,0,0,0.05555555555555555,13.333333333333332,0)" xlink:href="#aB"/></g><g id="T"><use transform="matrix(0.05555555555555555,0,0,0.05555555555555555,0,0)" xlink:href="#ac"/><use transform="matrix(0.05555555555555555,0,0,0.05555555555555555,10.666666666666666,0)" xlink:href="#ap"/><use transform="matrix(0.05555555555555555,0,0,0.05555555555555555,21.77777777777778,0)" xlink:href="#al"/><use transform="matrix(0.05555555555555555,0,0,0.05555555555555555,33.94444444444444,0)" xlink:href="#ao"/><use transform="matrix(0.05555555555555555,0,0,0.05555555555555555,46.11111111111111,0)" xlink:href="#ap"/><use transform="matrix(0.05555555555555555,0,0,0.05555555555555555,57.22222222222222,0)" xlink:href="#aq"/><use transform="matrix(0.05555555555555555,0,0,0.05555555555555555,64.99999999999999,0)" xlink:href="#ar"/></g><use transform="matrix(0.05555555555555555,0,0,0.05555555555555555,0,0)" xlink:href="#af" id="U"/><path d="M128 0H69L1-190h53L99-40l48-150h52" id="bp"/><g id="V"><use transform="matrix(0.05555555555555555,0,0,0.05555555555555555,0,0)" xlink:href="#aM"/><use transform="matrix(0.05555555555555555,0,0,0.05555555555555555,15.555555555555555,0)" xlink:href="#bp"/><use transform="matrix(0.05555555555555555,0,0,0.05555555555555555,26.666666666666664,0)" xlink:href="#ap"/><use transform="matrix(0.05555555555555555,0,0,0.05555555555555555,37.77777777777777,0)" xlink:href="#aq"/><use transform="matrix(0.05555555555555555,0,0,0.05555555555555555,45.55555555555555,0)" xlink:href="#bp"/><use transform="matrix(0.05555555555555555,0,0,0.05555555555555555,56.66666666666666,0)" xlink:href="#at"/><use transform="matrix(0.05555555555555555,0,0,0.05555555555555555,62.22222222222222,0)" xlink:href="#ap"/><use transform="matrix(0.05555555555555555,0,0,0.05555555555555555,73.33333333333333,0)" xlink:href="#ak"/></g><path d="M123 10C108 53 80 86 19 72V37c35 8 53-11 59-39L3-190h52l48 148c12-52 28-100 44-148h51" id="bq"/><path d="M195-6C206 82 75 100 31 46c-4-6-6-13-8-21l49-6c3 16 16 24 34 25 40 0 42-37 40-79-11 22-30 35-61 35-53 0-70-43-70-97 0-56 18-96 73-97 30 0 46 14 59 34l2-30h47zm-90-29c32 0 41-27 41-63 0-35-9-62-40-62-32 0-39 29-40 63 0 36 9 62 39 62" id="br"/><path d="M114-157C55-157 80-60 75 0H25v-261h50l-1 109c12-26 28-41 61-42 86-1 58 113 63 194h-50c-7-57 23-157-34-157" id="bs"/><g id="W"><use transform="matrix(0.05555555555555555,0,0,0.05555555555555555,0,0)" xlink:href="#bg"/><use transform="matrix(0.05555555555555555,0,0,0.05555555555555555,14.388888888888888,0)" xlink:href="#aj"/><use transform="matrix(0.05555555555555555,0,0,0.05555555555555555,26.555555555555554,0)" xlink:href="#au"/><use transform="matrix(0.05555555555555555,0,0,0.05555555555555555,38.72222222222222,0)" xlink:href="#bq"/><use transform="matrix(0.05555555555555555,0,0,0.05555555555555555,49.83333333333333,0)" xlink:href="#aq"/><use transform="matrix(0.05555555555555555,0,0,0.05555555555555555,57.61111111111111,0)" xlink:href="#at"/><use transform="matrix(0.05555555555555555,0,0,0.05555555555555555,63.166666666666664,0)" xlink:href="#br"/><use transform="matrix(0.05555555555555555,0,0,0.05555555555555555,75.33333333333333,0)" xlink:href="#bs"/><use transform="matrix(0.05555555555555555,0,0,0.05555555555555555,87.5,0)" xlink:href="#av"/></g><path d="M67-93c0 74 22 123 53 168H70C40 30 18-18 18-93s22-123 52-168h50c-32 44-53 94-53 168" id="bt"/><path d="M102-93c0 74-22 123-52 168H0C30 29 54-18 53-93c0-74-22-123-53-168h50c30 45 52 94 52 168" id="bu"/><g id="X"><use transform="matrix(0.05555555555555555,0,0,0.05555555555555555,0,0)" xlink:href="#bt"/><use transform="matrix(0.05555555555555555,0,0,0.05555555555555555,6.611111111111111,0)" xlink:href="#bg"/><use transform="matrix(0.05555555555555555,0,0,0.05555555555555555,21,0)" xlink:href="#bu"/></g><path d="M182-182c0 78-84 86-111 141h115V0H12c-6-101 99-100 120-180 1-22-12-31-33-32-23 0-32 14-35 34l-49-3c5-45 32-70 84-70 51 0 83 22 83 69" id="bv"/><path d="M101-251c68 0 84 54 84 127C185-50 166 4 99 4S15-52 14-124c-1-75 17-127 87-127zm-1 216c37-5 36-46 36-89s4-89-36-89c-39 0-36 45-36 89 0 43-3 85 36 89" id="bw"/><path d="M23 0v-37h61v-169l-59 37v-38l62-41h46v211h57V0H23" id="bx"/><path d="M52 0c1-96 47-148 87-207H15v-41h169v40c-36 62-79 113-81 208H52" id="by"/><g id="Y"><use transform="matrix(0.05555555555555555,0,0,0.05555555555555555,0,0)" xlink:href="#bv"/><use transform="matrix(0.05555555555555555,0,0,0.05555555555555555,11.11111111111111,0)" xlink:href="#bw"/><use transform="matrix(0.05555555555555555,0,0,0.05555555555555555,22.22222222222222,0)" xlink:href="#bx"/><use transform="matrix(0.05555555555555555,0,0,0.05555555555555555,33.33333333333333,0)" xlink:href="#by"/></g><g id="Z"><use transform="matrix(0.05555555555555555,0,0,0.05555555555555555,0,0)" xlink:href="#ae"/><use transform="matrix(0.05555555555555555,0,0,0.05555555555555555,14.388888888888888,0)" xlink:href="#ap"/><use transform="matrix(0.05555555555555555,0,0,0.05555555555555555,25.5,0)" xlink:href="#ap"/><use transform="matrix(0.05555555555555555,0,0,0.05555555555555555,36.611111111111114,0)" xlink:href="#au"/><use transform="matrix(0.05555555555555555,0,0,0.05555555555555555,48.77777777777778,0)" xlink:href="#ae"/><use transform="matrix(0.05555555555555555,0,0,0.05555555555555555,63.166666666666664,0)" xlink:href="#an"/><use transform="matrix(0.05555555555555555,0,0,0.05555555555555555,74.27777777777777,0)" xlink:href="#av"/><use transform="matrix(0.05555555555555555,0,0,0.05555555555555555,80.88888888888889,0)" xlink:href="#an"/></g><path d="M24 0v-54h51V0H24" id="bz"/><g id="aa"><use transform="matrix(0.05555555555555555,0,0,0.05555555555555555,0,0)" xlink:href="#ai"/><use transform="matrix(0.05555555555555555,0,0,0.05555555555555555,12.166666666666666,0)" xlink:href="#av"/><use transform="matrix(0.05555555555555555,0,0,0.05555555555555555,18.77777777777778,0)" xlink:href="#ao"/><use transform="matrix(0.05555555555555555,0,0,0.05555555555555555,30.944444444444443,0)" xlink:href="#bz"/></g><path d="M35-132v-50h50v50H35zM35 0v-49h50V0H35" id="bA"/><path d="M4 7l51-268h42L46 7H4" id="bB"/><path d="M85 4C-2 5 27-109 22-190h50c7 57-23 150 33 157 60-5 35-97 40-157h50l1 190h-47c-2-12 1-28-3-38-12 25-28 42-61 42" id="bC"/><g id="ab"><use transform="matrix(0.05555555555555555,0,0,0.05555555555555555,0,0)" xlink:href="#bs"/><use transform="matrix(0.05555555555555555,0,0,0.05555555555555555,12.166666666666666,0)" xlink:href="#av"/><use transform="matrix(0.05555555555555555,0,0,0.05555555555555555,18.77777777777778,0)" xlink:href="#av"/><use transform="matrix(0.05555555555555555,0,0,0.05555555555555555,25.38888888888889,0)" xlink:href="#au"/><use transform="matrix(0.05555555555555555,0,0,0.05555555555555555,37.55555555555556,0)" xlink:href="#bA"/><use transform="matrix(0.05555555555555555,0,0,0.05555555555555555,44.16666666666667,0)" xlink:href="#bB"/><use transform="matrix(0.05555555555555555,0,0,0.05555555555555555,49.72222222222223,0)" xlink:href="#bB"/><use transform="matrix(0.05555555555555555,0,0,0.05555555555555555,55.277777777777786,0)" xlink:href="#ak"/><use transform="matrix(0.05555555555555555,0,0,0.05555555555555555,70.83333333333334,0)" xlink:href="#ak"/><use transform="matrix(0.05555555555555555,0,0,0.05555555555555555,86.3888888888889,0)" xlink:href="#ak"/><use transform="matrix(0.05555555555555555,0,0,0.05555555555555555,101.22222222222223,0)" xlink:href="#bz"/><use transform="matrix(0.05555555555555555,0,0,0.05555555555555555,106.77777777777779,0)" xlink:href="#ao"/><use transform="matrix(0.05555555555555555,0,0,0.05555555555555555,118.94444444444446,0)" xlink:href="#ap"/><use transform="matrix(0.05555555555555555,0,0,0.05555555555555555,130.05555555555557,0)" xlink:href="#ap"/><use transform="matrix(0.05555555555555555,0,0,0.05555555555555555,141.16666666666669,0)" xlink:href="#au"/><use transform="matrix(0.05555555555555555,0,0,0.05555555555555555,153.33333333333334,0)" xlink:href="#ao"/><use transform="matrix(0.05555555555555555,0,0,0.05555555555555555,165.5,0)" xlink:href="#an"/><use transform="matrix(0.05555555555555555,0,0,0.05555555555555555,176.61111111111111,0)" xlink:href="#av"/><use transform="matrix(0.05555555555555555,0,0,0.05555555555555555,183.22222222222223,0)" xlink:href="#an"/><use transform="matrix(0.05555555555555555,0,0,0.05555555555555555,194.33333333333334,0)" xlink:href="#bz"/><use transform="matrix(0.05555555555555555,0,0,0.05555555555555555,199.88888888888889,0)" xlink:href="#bs"/><use transform="matrix(0.05555555555555555,0,0,0.05555555555555555,212.05555555555554,0)" xlink:href="#bC"/><use transform="matrix(0.05555555555555555,0,0,0.05555555555555555,224.2222222222222,0)" xlink:href="#bB"/></g></defs></g></svg>